<svg xmlns="http://www.w3.org/2000/svg" xmlns:xlink="http://www.w3.org/1999/xlink" fill="none" version="1.1" width="60" height="60" viewBox="0 0 60 60"><defs><clipPath id="master_svg0_68_00207"><rect x="0" y="0" width="60" height="60" rx="0"/></clipPath></defs><g><g clip-path="url(#master_svg0_68_00207)"><g><path d="M11.1923828125,12.40943L11.1923828125,42.9228C11.1923828125,45.422,12.7414728125,47.6594,15.0807228125,48.5389L35.0923828125,56.0633C38.1924828125,57.229,41.6662828125,56.8094,44.3996828125,54.9391L46.5976828125,53.4352C47.9807828125,52.4889,48.8077828125,50.921,48.8077828125,49.2452L48.8077828125,41.7692C48.8077828125,41.1701,48.6133828125,40.587,48.2538828125,40.1077L43.7828828125,34.1464C43.4931828125,33.7601,43.5501828125,33.2158,43.9135828125,32.897800000000004L47.8620828125,29.4429C48.4630828125,28.917,48.8077828125,28.1573,48.8077828125,27.3588L48.8077828125,17.2394C48.8077828125,15.3334,47.6360828125,13.6234,45.8584828125,12.93528L23.0878828125,4.12085C21.2459828125,3.407828,19.1871228125,3.515517,17.4296028125,4.41681L15.4582028125,5.42778C12.8394028125,6.77076,11.1923828125,9.466339999999999,11.1923828125,12.40943Z" fill="#000000" fill-opacity="1"/></g><g><path d="M14.654296875,13.453917265625L14.654296875,42.933647265625C14.654296875,43.898247265625,15.254244875,44.761047265625,16.158476875,45.096947265625L37.018296875000004,52.844947265625C37.922896875,53.180847265625,38.885096875,52.511847265625,38.885096875,51.546947265625L38.885096875,44.781747265625C38.885096875,43.875147265625,38.588496875000004,42.993447265625,38.040596875,42.271147265625004L34.233296875,37.252547265625C33.982196875,36.921447265625005,33.540796875,36.799047265625,33.154996874999995,36.953347265625L30.346596875,38.076747265625Q28.731196875000002,38.769047265625005,28.038896875,37.845947265625Q27.346596875,36.922847265624995,28.269696875,35.769047265625005L36.577396875000005,31.384447265625Q37.615796875,30.692147265625,38.192796875,29.769047265625Q38.769696875,28.845947265625,38.885096875,27.692147265625L38.885096875,21.018047265625C38.885096875,20.039157265625,38.267496875,19.166807265625,37.344296875,18.841487265625L17.114016875,11.712707265625C15.913026875,11.289501265625,14.654296875,12.180547265625,14.654296875,13.453917265625Z" fill="#14E351" fill-opacity="1"/></g><g transform="matrix(0,1,-1,0,37.499755859375,-6.115478515625)"><path d="M23.2158071875,15.692138671875L31.9850171875,15.692138671875L30.5768471875,19.384448671875L21.8076171875,19.384448671875L23.2158071875,15.692138671875Z" fill-rule="evenodd" fill="#000000" fill-opacity="1"/></g><g transform="matrix(0,1,-1,0,45.80712890625,-9.80712890625)"><path d="M29.21531890625,18L37.98452890625,18L36.57635890625,21.69231L27.80712890625,21.69231L29.21531890625,18Z" fill-rule="evenodd" fill="#000000" fill-opacity="1"/></g></g></g></svg>